<svg width="155" height="49" viewBox="0 0 155 49" fill="none" xmlns="http://www.w3.org/2000/svg">
<path d="M115.121 22.0062V47.9546C115.098 48.4909 114.686 48.9034 114.18 48.9034H109.569C109.064 48.9034 108.652 48.4826 108.621 47.9546V21.0656H107.726C107.726 21.0656 107.688 21.0656 107.664 21.0656H102.921C102.4 21.0656 101.965 20.6036 101.965 20.0426V14.9601C101.965 14.3991 102.393 13.9453 102.921 13.9453H107.664C108.185 13.9453 108.613 14.3991 108.613 14.9601V15.5212V21.0491H114.172C114.678 21.0491 115.09 21.4699 115.113 21.998L115.121 22.0062Z" fill="#2E21BC"/>
<path d="M82.1117 35.9086H89.1252C91.4812 35.9086 94.0704 33.7387 95.0113 31.5027C96.9163 27.0226 94.7236 23.0788 90.7425 21.3544C90.5559 21.2637 89.5295 20.8016 88.923 20.3478L88.9075 20.3313C88.5343 20.1086 88.3166 19.7373 88.3088 19.3825C88.301 19.3578 88.301 19.3413 88.301 19.333C88.0833 16.3133 84.872 13.9453 81.9795 13.9453H69.9509C69.5465 13.9453 69.2122 14.2093 69.0645 14.5806V23.7059C69.1111 23.8296 69.1811 23.9451 69.2666 24.0359C69.4454 24.2256 69.6865 24.3412 69.9509 24.3412H75.5959V25.0837L75.557 35.166V47.014C75.557 48.0041 75.9769 48.8209 76.5056 48.8209H81.1553C81.5363 48.8209 81.8707 48.3919 82.0262 47.7731L82.0573 39.0604L82.1117 35.9086ZM82.1273 30.7189L82.1117 25.3477C82.1117 24.7867 81.6841 24.3412 81.1553 24.3412H75.6192V20.9089H87.7645C88.2466 20.9089 88.6354 21.3049 88.6587 21.8165C88.6587 21.833 88.6587 21.8495 88.6587 21.866V30.7189H82.1195H82.1273Z" fill="#2E21BC"/>
<path d="M62.3851 21.8907V47.8968C62.3851 48.4083 61.9652 48.8539 61.4831 48.8539H56.7634C56.2813 48.8539 55.8925 48.4083 55.8925 47.8968V36.1231H47.2073V47.8968C47.2073 48.4083 46.803 48.8539 46.3053 48.8539H41.6012C41.1035 48.8539 40.6992 48.4083 40.6992 47.8968V21.8907C40.6992 21.3626 41.1035 20.9336 41.6012 20.9336H47.2073V30.6776H55.8925V20.9336H61.4831C61.9652 20.9336 62.3851 21.3626 62.3851 21.8907Z" fill="#2E21BC"/>
<path d="M55.7967 14.9024V20.9336H47.1426V14.9024C47.1426 14.3743 47.4925 13.9453 47.9435 13.9453H54.9958C55.4468 13.9453 55.7967 14.3743 55.7967 14.9024Z" fill="#2E21BC"/>
<path d="M9.40039 13.6895C9.48371 13.8545 9.49886 13.97 9.40039 14.168V13.6895Z" fill="#2E21BC"/>
<path d="M17.2179 11.7096C17.3501 11.8169 18.8119 13.3433 18.8897 13.4835C19.1152 13.8548 19.2162 13.9538 18.9363 14.3664C18.8663 14.4736 17.2801 16.1485 17.1791 16.2145C16.8758 16.4208 16.7514 16.561 16.386 16.3383C16.2693 16.264 14.5587 14.4489 14.4887 14.3251C14.3332 14.0446 14.341 13.8218 14.4887 13.5495C14.5587 13.4258 16.316 11.5529 16.4404 11.4951C16.7825 11.3219 16.9613 11.5034 17.2179 11.7096Z" fill="#2E21BC"/>
<path d="M9.40263 14.2106C9.3793 14.2601 9.34043 14.3178 9.30155 14.3756C9.23157 14.4829 7.64537 16.1495 7.54429 16.2237C7.24104 16.43 7.11664 16.5785 6.75119 16.3475C6.63456 16.2732 4.91617 14.4581 4.85397 14.3343C4.69846 14.0538 4.70624 13.8393 4.85397 13.5588C4.92395 13.435 6.68899 11.5621 6.81339 11.5044C7.15552 11.3311 7.32658 11.5044 7.59094 11.7189C7.72313 11.8179 9.17714 13.3525 9.26267 13.4928C9.32488 13.5918 9.37153 13.666 9.41041 13.7403C9.49594 13.9053 9.51149 14.0208 9.41041 14.2188L9.40263 14.2106Z" fill="#2E21BC"/>
<path d="M21.8886 11.676C22.0286 11.7833 23.5059 13.3344 23.5914 13.4829C23.8169 13.8624 23.918 13.9614 23.6381 14.3822C23.5681 14.4895 21.9586 16.1891 21.8497 16.2551C21.5387 16.4614 21.4143 16.6099 21.0411 16.3789C20.9245 16.3046 19.1827 14.4647 19.1205 14.341C18.965 14.0522 18.965 13.8377 19.1205 13.5572C19.1905 13.4251 20.9789 11.5275 21.1033 11.4697C21.4532 11.2965 21.632 11.478 21.8886 11.6843V11.676Z" fill="#2E21BC"/>
<path d="M26.5422 11.7096C26.6743 11.8169 28.1361 13.3433 28.2139 13.4835C28.4394 13.8548 28.5405 13.9538 28.2605 14.3664C28.1906 14.4736 26.6044 16.1485 26.5033 16.2145C26.2 16.4208 26.0756 16.561 25.7102 16.3383C25.5935 16.264 23.8829 14.4489 23.813 14.3251C23.6574 14.0446 23.6652 13.8218 23.813 13.5495C23.8829 13.4258 25.6402 11.5529 25.7646 11.4951C26.1067 11.3219 26.2856 11.5034 26.5422 11.7096Z" fill="#2E21BC"/>
<path d="M10.3103 24.9602C10.4347 25.0922 10.4347 25.315 10.3103 25.447L8.13316 27.7077C8.00098 27.8397 7.79882 27.8397 7.65886 27.6829L0.777549 19.9933C0.536509 19.6468 0 18.995 0 18.5577V16.4538V11.4539V9.34994C0 8.91265 0.528733 8.26085 0.777549 7.91432L7.65886 0.224699C7.79882 0.0596856 8.00098 0.059685 8.13316 0.199946L10.3103 2.46063C10.4347 2.59264 10.4347 2.81541 10.3103 2.94742L10.2092 3.06293L3.32791 10.5133L1.80392 12.1717L0.155509 13.9621L1.80392 15.7525L3.32791 17.4108L10.2092 24.8612L10.3103 24.9767V24.9602Z" fill="#2E21BC"/>
<path d="M19.7712 24.9602C19.8956 25.0922 19.8956 25.315 19.7712 25.447L17.5941 27.7077C17.4619 27.8397 17.2598 27.8397 17.1198 27.6829L10.2385 19.9933C9.99745 19.6468 9.46094 18.995 9.46094 18.5577V16.4538V11.4539V9.34994C9.46094 8.91265 9.98967 8.26085 10.2385 7.91432L17.1198 0.224699C17.2598 0.0596856 17.4619 0.059685 17.5941 0.199946L19.7712 2.46063C19.8956 2.59264 19.8956 2.81541 19.7712 2.94742L19.6702 3.06293L12.7888 10.5133L11.2649 12.1717L9.61645 13.9621L11.2649 15.7525L12.7888 17.4108L19.6702 24.8612L19.7712 24.9767V24.9602Z" fill="#2E21BC"/>
<path d="M33.1727 18.7152C33.1727 18.7647 33.1727 18.8142 33.1727 18.8637C33.1883 19.3835 32.9939 19.9116 32.6129 20.2993L30.809 22.1557C30.669 22.296 30.4358 22.296 30.3036 22.1392L29.6582 21.4214L28.1109 19.8208C27.9865 19.6805 27.9865 19.466 28.1109 19.3258L28.212 19.2102L28.2586 19.1607C28.2586 19.1607 31.7887 15.6212 32.2008 14.8869C32.2552 14.7961 32.2941 14.7054 32.3174 14.6229C32.3874 14.4084 32.4263 14.1938 32.4263 13.9793V13.8968C32.4263 13.6823 32.3874 13.4595 32.3174 13.2533C32.2941 13.1708 32.2474 13.08 32.2008 12.9892C31.7887 12.2549 28.2586 8.72365 28.2586 8.72365L28.212 8.6659L28.1109 8.55038C27.9865 8.41837 27.9865 8.19561 28.1109 8.05535L29.6582 6.45472L30.3036 5.73691C30.4358 5.58014 30.669 5.58015 30.809 5.72041L32.6129 7.57681C32.9939 7.97284 33.1883 8.49263 33.1727 9.01242C33.1727 9.06193 33.1727 9.11143 33.1727 9.16094C33.1027 10.6873 33.1027 17.1806 33.1727 18.707V18.7152Z" fill="#2E21BC"/>
<path d="M125.158 40.4642C125.158 40.0764 125.298 39.7629 125.461 39.7629C125.625 39.7629 126.06 39.7546 126.426 39.7381C126.426 39.7381 126.426 39.7381 126.752 39.6969C127.071 39.6556 127.359 39.5648 127.615 39.4246C127.872 39.2843 128.074 39.0863 128.229 38.8223C128.385 38.5583 128.463 38.2035 128.463 37.7662C128.463 37.1969 128.284 36.7349 127.918 36.3801C127.553 36.0253 127.079 35.8438 126.496 35.8438C126.029 35.8438 125.609 35.9841 125.236 36.2646C124.863 36.5451 124.73 36.8339 124.73 36.8339C124.567 37.1721 124.14 37.3784 123.79 37.2794L122.584 36.9329C122.235 36.8339 122.056 36.4626 122.188 36.0996C122.188 36.0996 122.32 35.7448 122.608 35.3405C122.895 34.9362 123.23 34.6144 123.626 34.3587C124.015 34.1029 124.443 33.9131 124.917 33.7894C125.384 33.6656 125.873 33.5996 126.379 33.5996C126.978 33.5996 127.545 33.6821 128.074 33.8471C128.61 34.0121 129.077 34.2597 129.481 34.5814C129.886 34.9032 130.204 35.3157 130.445 35.8025C130.687 36.2893 130.803 36.8586 130.803 37.5104C130.803 38.2942 130.593 38.9955 130.181 39.6143C129.761 40.2331 129.054 40.5549 129.054 40.5549C128.719 40.7034 128.447 40.8354 128.447 40.8519C128.447 40.8684 128.727 40.9675 129.077 41.0912C129.077 41.0912 130.002 41.413 130.461 42.0731C130.92 42.7331 131.145 43.5252 131.145 44.4327C131.145 45.134 131.021 45.7611 130.764 46.2974C130.508 46.8337 130.166 47.2875 129.738 47.6505C129.31 48.0135 128.813 48.2941 128.245 48.4756C127.677 48.6653 127.086 48.7561 126.48 48.7561C125.905 48.7561 125.368 48.6901 124.863 48.5581C124.357 48.4261 123.899 48.2198 123.486 47.9475C123.074 47.6753 122.724 47.3122 122.421 46.8832C122.118 46.4542 121.962 45.9756 121.962 45.9756C121.838 45.6126 122.025 45.2331 122.375 45.134L123.595 44.7875C123.945 44.6885 124.342 44.903 124.474 45.2578C124.474 45.2578 124.629 45.6868 124.995 46.0169C125.36 46.3469 125.858 46.5119 126.48 46.5119C126.791 46.5119 127.086 46.4542 127.366 46.3469C127.646 46.2396 127.895 46.0829 128.105 45.8849C128.323 45.6868 128.486 45.4393 128.61 45.1588C128.735 44.8783 128.797 44.5648 128.797 44.2182C128.797 43.7479 128.704 43.3684 128.517 43.0714C128.331 42.7744 128.09 42.5433 127.794 42.3866C127.499 42.2298 127.172 42.1226 126.807 42.0648C126.441 42.007 126.394 42.007 126.394 42.007C126.029 41.9905 125.609 41.9823 125.454 41.9823C125.298 41.9823 125.174 41.6688 125.174 41.281V40.4477L125.158 40.4642Z" fill="#2E21BC"/>
<path d="M140.246 33.8633C140.611 33.8633 140.744 34.1273 140.549 34.4491L137.944 38.7064C137.75 39.0282 137.594 39.3005 137.602 39.317C137.61 39.3335 137.773 39.2757 137.96 39.1932L138.201 39.152C138.442 39.1107 138.675 39.086 138.916 39.086C139.531 39.086 140.09 39.2097 140.596 39.4572C141.101 39.7048 141.544 40.043 141.91 40.4721C142.283 40.9011 142.571 41.3961 142.773 41.9654C142.975 42.5347 143.076 43.1288 143.076 43.7641C143.076 44.5231 142.952 45.2162 142.703 45.835C142.454 46.4538 142.112 46.9818 141.677 47.4191C141.241 47.8564 140.72 48.1864 140.114 48.4257C139.507 48.6567 138.854 48.7805 138.154 48.7805C137.455 48.7805 136.762 48.665 136.164 48.4422C135.565 48.2112 135.044 47.8894 134.609 47.4604C134.173 47.0314 133.831 46.5033 133.59 45.8845C133.349 45.2657 133.232 44.5644 133.232 43.7888C133.232 43.0133 133.349 42.312 133.59 41.6849C133.831 41.0579 134.189 40.3813 134.189 40.3813C134.368 40.043 134.671 39.5067 134.865 39.185L137.696 34.4656C137.89 34.1438 138.349 33.8715 138.706 33.8715H140.238L140.246 33.8633ZM135.697 43.7476C135.697 44.1189 135.759 44.4654 135.892 44.7954C136.024 45.1254 136.203 45.406 136.428 45.6452C136.654 45.8845 136.926 46.0743 137.229 46.2145C137.532 46.3548 137.867 46.4208 138.217 46.4208C138.566 46.4208 138.893 46.3548 139.204 46.2145C139.515 46.0743 139.779 45.8845 140.005 45.6452C140.23 45.406 140.409 45.1172 140.541 44.7954C140.674 44.4736 140.736 44.1189 140.736 43.7476C140.736 43.3763 140.674 43.0298 140.541 42.6997C140.409 42.3697 140.23 42.0892 140.005 41.8499C139.779 41.6107 139.507 41.4209 139.204 41.2806C138.901 41.1404 138.566 41.0744 138.217 41.0744C137.867 41.0744 137.54 41.1404 137.229 41.2806C136.918 41.4209 136.654 41.6107 136.428 41.8499C136.203 42.0892 136.024 42.378 135.892 42.6997C135.759 43.0215 135.697 43.3763 135.697 43.7476Z" fill="#2E21BC"/>
<path d="M144.719 41.1972C144.719 40.0338 144.804 39.0437 144.983 38.2269C145.162 37.4101 145.387 36.717 145.675 36.156C145.963 35.595 146.282 35.1494 146.639 34.8111C146.997 34.4729 147.362 34.2171 147.736 34.0438C148.109 33.8706 148.467 33.7551 148.809 33.7056C149.151 33.6478 149.454 33.623 149.718 33.623C149.983 33.623 150.278 33.6478 150.628 33.7056C150.97 33.7633 151.328 33.8706 151.701 34.0438C152.074 34.2171 152.44 34.4729 152.797 34.8111C153.155 35.1494 153.474 35.595 153.762 36.156C154.049 36.717 154.283 37.4101 154.454 38.2269C154.625 39.0437 154.718 40.0421 154.718 41.1972C154.718 42.3523 154.632 43.3506 154.454 44.1674C154.275 44.9842 154.049 45.6773 153.762 46.2383C153.474 46.7994 153.155 47.2449 152.797 47.5832C152.44 47.9215 152.074 48.1772 151.701 48.3505C151.328 48.5238 150.97 48.6393 150.628 48.6888C150.286 48.7465 149.983 48.7713 149.718 48.7713C149.454 48.7713 149.159 48.7465 148.809 48.6888C148.467 48.631 148.109 48.5238 147.736 48.3505C147.362 48.1772 146.997 47.9215 146.639 47.5832C146.282 47.2449 145.963 46.7994 145.675 46.2383C145.387 45.6773 145.154 44.9842 144.983 44.1674C144.812 43.3506 144.719 42.3523 144.719 41.1972ZM147.059 41.1972C147.059 41.6509 147.09 42.179 147.145 42.7813C147.207 43.3836 147.324 43.9529 147.502 44.4892C147.681 45.0255 147.953 45.4875 148.303 45.8588C148.653 46.2301 149.12 46.4198 149.711 46.4198C150.302 46.4198 150.768 46.2301 151.118 45.8588C151.468 45.4875 151.74 45.0337 151.919 44.4892C152.098 43.9529 152.222 43.3836 152.277 42.7813C152.339 42.179 152.362 41.6509 152.362 41.1972C152.362 40.7434 152.331 40.2153 152.277 39.613C152.214 39.0107 152.098 38.4414 151.919 37.9051C151.74 37.3689 151.468 36.9068 151.118 36.5355C150.768 36.1643 150.302 35.9745 149.711 35.9745C149.12 35.9745 148.653 36.1643 148.303 36.5355C147.953 36.9068 147.681 37.3606 147.502 37.9051C147.324 38.4414 147.199 39.0107 147.145 39.613C147.082 40.2153 147.059 40.7434 147.059 41.1972Z" fill="#2E21BC"/>
</svg>
